<svg xmlns="http://www.w3.org/2000/svg" width="50" height="50" viewBox="0 0 50 50"><path fill="none" d="M0 0h50v50H0z"/><path fill="#FFF" stroke="#414141" stroke-width="2" stroke-miterlimit="1" d="M32 15.6c-.6-1.6-2.3-2.3-3.9-1.8L14.2 19c-1.6.6-2.3 2.3-1.8 3.9l3.2 8.5c.6 1.6 2.3 2.3 3.9 1.8l14-5.2c1.6-.6 2.3-2.3 1.8-3.9-.1.1-3.3-8.5-3.3-8.5z" stroke-linejoin="round"/><path fill="#414141" d="M31.8 15.1l-19.5 7.3 1.3 3.4 19.5-7.3-1.3-3.4zm.1 5.8l-6.5 2.4.8 2.1 6.5-2.4-.8-2.1z"/><path fill="#FFF" stroke="#414141" stroke-width="2" stroke-miterlimit="1" d="M37.7 22.1c0-1.7-1.3-3-3-3h-15c-1.7 0-3 1.3-3 3v9.2c0 1.7 1.3 3 3 3h15c1.7 0 3-1.3 3-3v-9.2z" stroke-linejoin="round"/><path fill="#414141" d="M19 28.9h11.8V31H19zm2.6-6.8h1l-1.1 3.3h-1.1l-1.1-3.3h1l.6 2.5.7-2.5zm1.3 0h.9v3.3h-.9zm3.8 2.3c0 1.2-1.5 1.2-2.3.8v-.8c.2.1 1.1.5 1.3.2.3-.4-.7-.6-.9-.8-.5-.4-.6-1.1-.1-1.5.5-.4 1.4-.3 2 0l-.3.7c-.2-.1-.8-.4-1.1-.2-.3.2.3.5.5.6.5.2.9.4.9 1zm2.5 1l-.2-.6h-1l-.2.6h-1l1.1-3.3h1.2l1.1 3.3h-1zm-.3-1.4l-.4-1.4-.3 1.4h.7zm6.7-1.1c0-.5-.4-.8-.8-.8h-2.5c-.5 0-.8.4-.8.8v2.5c0 .5.4.8.8.8h2.5c.5 0 .8-.4.8-.8v-2.5z"/></svg>