<svg xmlns="http://www.w3.org/2000/svg" fill-rule="evenodd" stroke-miterlimit="1" viewBox="0 0 50 50" clip-rule="evenodd" stroke-linejoin="bevel"><path fill="none" d="M0 0h50v50H0z"/><path fill="#80899c" d="M12.75 33.28h24.5v2h-24.5z"/><g stroke="#414141" stroke-width="2"><path fill="#f9f9f9" d="M38.373 13.7c1.18 0 2.14.96 2.14 2.14v11.542c0 1.18-.96 2.14-2.14 2.14h-.7c0-2.075-1.683-3.76-3.758-3.76-2.074 0-3.758 1.685-3.758 3.76h-8.53c0-2.075-1.685-3.76-3.76-3.76-2.074 0-3.758 1.685-3.758 3.76h-2.486c-1.18 0-2.14-.96-2.14-2.14V15.84c0-1.18.96-2.14 2.14-2.14H38.37z"/><path fill="none" d="M9.487 21.067h31.026"/><path fill="#fff" d="M40.513 16.7c0-1.656-1.344-3-3-3H12.487c-1.656 0-3 1.344-3 3v4.367h31.026V16.7z"/><path fill="none" d="M17.347 13.7h7.517v7.367h-7.517zm7.517 0h7.517v7.367h-7.513z"/><circle cx="17.868" cy="29.521" r="3.759" fill="#80899c"/><circle cx="33.915" cy="29.521" r="3.759" fill="#80899c"/></g></svg>