<svg xmlns="http://www.w3.org/2000/svg" fill-rule="evenodd" stroke-miterlimit="1" viewBox="0 0 50 50" clip-rule="evenodd" stroke-linejoin="bevel"><path fill="none" d="M0 0h50v50H0z"/><path fill="#f7be33" d="M18.05 14.16c0-.806.696-1.46 1.553-1.46s1.553.654 1.553 1.46c.43-.698 1.38-.938 2.12-.535.744.404.998 1.3.57 1.997.742-.403 1.692-.163 2.12.535.43.7.175 1.594-.567 1.997.85 0 1.55.655 1.55 1.462 0 .807-.7 1.462-1.55 1.462.74.403.99 1.298.56 1.997-.43.698-1.38.938-2.12.535.427.698.173 1.593-.57 1.997-.74.403-1.69.163-2.12-.535 0 .806-.697 1.46-1.554 1.46s-1.55-.654-1.55-1.46c-.43.698-1.38.938-2.12.535-.745-.404-1-1.3-.57-1.997-.74.403-1.694.163-2.12-.535-.43-.7-.176-1.594.566-1.997-.857 0-1.553-.655-1.553-1.462 0-.807.696-1.462 1.553-1.462-.742-.403-.997-1.298-.568-1.997.426-.698 1.38-.938 2.12-.535-.43-.698-.175-1.593.57-1.997.74-.403 1.69-.163 2.12.535z"/><path fill="#80899c" d="M12.365 19.602H26.95L24.035 35.25h-8.75l-2.92-15.648z"/><path fill="#fff" fill-rule="nonzero" d="M18.837 19.602h1.644V35.25h-1.64zM18.11 35.25h-1.627l-2.607-15.648h1.63L18.11 35.25zm3.108 0h1.628l2.607-15.648h-1.63L21.217 35.25z"/><path fill="#414141" d="M12.255 27.603h25.49v2.876h-25.49z"/><path fill="none" stroke="#414141" stroke-width="2" d="M35.844 29.04L16.52 24.778l-2.364 2.132"/><path fill="none" stroke="#414141" stroke-width="2" d="M14.156 29.04l19.323-4.263 2.36 2.132"/><path fill="#eb5333" stroke="#414141" stroke-width="2" d="M12.255 27.603h12.037l-3.01 6.677H13.46l-1.205-6.677z"/><path fill="#44aae8" stroke="#414141" stroke-width="2" d="M37.597 27.603H25.56l3.01 6.677h7.823l1.204-6.677z"/></svg>