<svg xmlns="http://www.w3.org/2000/svg" fill-rule="evenodd" stroke-miterlimit="1" viewBox="0 0 50 50" clip-rule="evenodd" stroke-linejoin="round"><path fill="none" d="M0 0h50v50H0z"/><g fill="#f9f9f9" stroke="#414141"><path stroke-width="1.98" d="M37 14.1c1.3-.74 2.96-.33 3.27.2.3.54-.18 2.18-1.5 2.93l-6.2 3.4-3 12.63-1.82 1.02-1.86-9.97-1.35.76-2.78 1.2-.75 3.1-2.74 1.53-.27-3.37-.5-.83-2.72-1.94 2.7-1.57 3.05.9 2.25-1.77 1.45-.83-7.6-6.62 1.8-1.06 12.45 3.85L37 14.1z"/><path d="M9.64 28.93l3.78-2.2m-1.38 3.55l3.78-2.2m-3.47 4.94l3.78-2.2"/></g></svg>