<?xml version="1.0" encoding="utf-8"?>
<!-- Generator: Adobe Illustrator 18.1.1, SVG Export Plug-In . SVG Version: 6.00 Build 0)  -->
<svg version="1.1" id="Layer_1" xmlns="http://www.w3.org/2000/svg" xmlns:xlink="http://www.w3.org/1999/xlink" x="0px" y="0px"
	 viewBox="0 0 16 16" enable-background="new 0 0 16 16" xml:space="preserve">
<g id="settings_2_">
	<g>
		<path fill="#666666" d="M8,11.2c-1.7,0-3.2-1.4-3.2-3.2c0-1.7,1.4-3.2,3.2-3.2c1.8,0,3.2,1.4,3.2,3.2C11.2,9.7,9.8,11.2,8,11.2z
			 M8,5.8c-1.2,0-2.2,1-2.2,2.2c0,1.2,1,2.2,2.2,2.2c1.2,0,2.2-1,2.2-2.2C10.2,6.8,9.2,5.8,8,5.8z"/>
	</g>
	<g>
		<path fill="#666666" d="M8.9,15.6H7.1c-0.4,0-0.8-0.3-0.8-0.8l-0.1-1.3c-0.4-0.1-0.7-0.3-1-0.4l-1,0.9c-0.3,0.3-0.8,0.3-1.1,0
			L2,12.8c-0.1-0.1-0.2-0.3-0.2-0.5c0-0.2,0.1-0.4,0.2-0.5l0.9-0.9c-0.2-0.3-0.3-0.7-0.4-1L1.1,9.7c0,0,0,0,0,0
			c-0.4,0-0.7-0.3-0.7-0.8V7.1c0-0.4,0.3-0.8,0.8-0.8l1.3-0.1c0.1-0.4,0.3-0.7,0.4-1L2,4.3C1.7,4,1.7,3.5,2,3.2L3.2,2
			C3.5,1.7,4,1.7,4.3,2l0.9,0.9c0.3-0.2,0.7-0.3,1-0.4l0.1-1.3c0-0.4,0.3-0.7,0.8-0.7h1.8c0.4,0,0.8,0.3,0.8,0.8l0.1,1.3
			c0.4,0.1,0.7,0.3,1,0.4l1-0.9c0.3-0.3,0.8-0.3,1.1,0L14,3.2c0.1,0.1,0.2,0.3,0.2,0.5S14.2,4.2,14,4.3l-0.9,0.9
			c0.2,0.3,0.3,0.7,0.4,1l1.3,0.1h0c0.4,0,0.7,0.3,0.7,0.8v1.8c0,0.4-0.3,0.8-0.8,0.8l-1.3,0.1c-0.1,0.4-0.3,0.7-0.4,1l0.9,1
			c0.3,0.3,0.3,0.8,0,1.1L12.8,14c-0.3,0.3-0.8,0.3-1.1,0l-0.9-0.9c-0.3,0.2-0.7,0.3-1,0.4l-0.1,1.3C9.7,15.3,9.3,15.6,8.9,15.6z
			 M7.3,14.6h1.3l0.1-1.8l0.4-0.1c0.5-0.1,1-0.3,1.4-0.6l0.3-0.2l1.3,1.2l0.9-0.9l-1.2-1.3l0.2-0.3c0.3-0.4,0.5-0.9,0.6-1.4l0.1-0.4
			l1.8-0.1V7.3l-1.8-0.1l-0.1-0.4c-0.1-0.5-0.3-1-0.6-1.4l-0.2-0.3l1.2-1.3l-0.9-0.9l-1.3,1.2l-0.3-0.2c-0.4-0.3-0.9-0.5-1.4-0.6
			L8.7,3.2L8.7,1.4H7.3L7.3,3.2L6.9,3.3c-0.5,0.1-1,0.3-1.4,0.6L5.1,4.1L3.8,2.8L2.8,3.8l1.2,1.3L3.9,5.5C3.6,5.9,3.4,6.4,3.3,6.9
			L3.2,7.3L1.4,7.3v1.3l1.8,0.1l0.1,0.4c0.1,0.5,0.3,1,0.6,1.4l0.2,0.3l-1.2,1.3l0.9,0.9l1.3-1.2l0.3,0.2c0.4,0.3,0.9,0.5,1.4,0.6
			l0.4,0.1L7.3,14.6z"/>
	</g>
</g>
</svg>
