<?xml version="1.0" encoding="utf-8"?>
<!-- Generator: Adobe Illustrator 18.1.1, SVG Export Plug-In . SVG Version: 6.00 Build 0)  -->
<svg version="1.1" id="Layer_1" xmlns="http://www.w3.org/2000/svg" xmlns:xlink="http://www.w3.org/1999/xlink" x="0px" y="0px"
	 viewBox="0 0 25 22.6" enable-background="new 0 0 25 22.6" xml:space="preserve">
<g>
	<g>
		<path fill="#333333" d="M15,9.8h-1.3c0,0.7-0.1,1-0.3,1.3c-0.2,0.4-0.5,0.7-0.8,0.9c-0.3,0.2-0.7,0.5-1,0.6
			c-0.4,0.1-0.8,0.2-1.2,0.2h-0.1v0c0.3,0.3,0.5,0.6,0.8,0.9c0.3,0.3,0.5,0.7,0.8,1l2.1,2.6v0.2h-1.6c-0.3-0.3-0.7-0.9-1.1-1.4
			c-0.4-0.5-0.8-1-1.1-1.4c-0.4-0.5-0.7-0.9-1-1.2c-0.3-0.4-0.6-0.6-0.7-0.8c0.1-0.2,0.1-0.3,0.2-0.5c0.1-0.2,0.1-0.3,0.2-0.5
			c0.3,0.1,0.6,0.1,1,0.1c0.3,0,0.6,0,0.9-0.1c0.3-0.1,0.5-0.2,0.8-0.3c0.2-0.2,0.4-0.4,0.5-0.7c0.1-0.2,0.2-0.6,0.3-0.9H8.6v-1h3.6
			c-0.1-0.3-0.4-0.6-0.7-0.8c-0.3-0.2-0.7-0.2-1.1-0.2H8.6v-1h6.9c-0.1,0-0.2,0.3-0.3,0.5c-0.1,0.2-0.2,0.2-0.3,0.5h-2.4v0
			C13,7.9,13,7.9,13.1,8.1c0.2,0.2,0.3,0.6,0.4,0.6h2L15,9.8z"/>
	</g>
	<g>
		<g>
			<polygon fill="#0DB1DA" points="18.9,13.9 18.9,6.4 20.6,6.4 20.6,13.9 22.2,13.9 19.9,17.2 17.5,13.9 			"/>
		</g>
	</g>
	<path fill="none" stroke="#4D4D4D" stroke-width="1.7421" stroke-miterlimit="10" d="M18.5,4.8c-3.6-3.6-9.4-3.6-13,0
		s-3.6,9.4,0,13s9.4,3.6,13,0"/>
</g>
</svg>
