<svg xmlns="http://www.w3.org/2000/svg" viewBox="0 0 213.2 215.6"><path fill="#333" d="M137.8 209c-1.4 0-2.8-.4-3.7-1.3L7 80.3c-1-1-1.4-2.2-1.2-3.7l6-58c.3-3 3-5.6 6-6l58-6c1 0 2.4.4 3.4 1.4l127.5 127.3c2 2 1.6 5.4-.8 7.7l-64 64c-1 1-3 1.8-4 2zM16.6 73L139 195.7l55.5-55.4L72 17.8 21.8 23l-5.2 50.2z"/><circle cx="46.1" cy="47.3" r="6.5" fill="#333"/><path fill="#0B9CC0" d="M78.8 92.7c-2.5 2.5-5.3 3.5-8.5 3s-6.3-2-9.5-5.2c-3-3-5.2-6.2-6.2-9.2L59 77c.6 2 1.4 3.7 2.5 5.4 1 1.8 2.2 3.3 3.5 4.5 1.8 1 3.5 2 5 2s3-1 4-2 1.5-2.6 1.5-4-.8-4-2.3-7.6c-1.5-3.7-2-6.6-1.8-9 .3-2.4 1.3-4.4 3.2-6.3 2.3-2.5 5-3.5 8-3 3 0 5.7 1.7 8.5 4.4s5 6 7 10L93 74c-1-3.3-3-6-5-8-1-1.4-3-2.2-4-2.3s-2.6 0-4 1c-.5.6-1 1.4-1.2 2.2-.2.3-.2 1.3 0 3 0 1 1 3 2 5 1 3 2 5 2 7 .3 1.4 0 3-.3 4.3-.5 2-1.4 3-2.7 4.5zm15.2 30l4.8-10.4-10.6-10.6-10.4 5L73 102l38.2-17.5 5 5-17.6 38L94 123zm7.5-15.4l5-10c.2-.8.7-2 1.5-3.3.8-1.4 1.3-2.5 1.7-3-2 1-4 2.3-6.6 3.5l-9 4.7 8 8zm1 24l27.6-27.7 5 4.5-24 24 12 12-4 4-16-16zM139 168l-15.6-15.7 27.7-27.7 16 15.7-4 3.8-11-11-7 8 11 10-4 4-10.3-10-8.6 9 11 11-4 4z"/></svg>