<svg xmlns="http://www.w3.org/2000/svg" viewBox="0 0 218.4 51.8">
  <path fill="#1F7A93" d="M5.24 14.95l32.74-6.1 6.5 34.92-32.75 6.08z"/>
  <path fill="#FFF" d="M17.4 19.6l12.2-2.3c-.5 1.4-.8 2.1-.9 2.2l-3.2.6c.6.5 1 1.2 1.3 2l3.5-.6h.1c-.5 1.5-.8 2.2-.8 2.2l-2.2.4c.1.7-.1 1.5-.4 2.6-.5 1.1-1.1 1.8-1.7 2.3-1.1.9-2.1 1.4-3.2 1.6 0 .1.4.4 1 1l7.5 7.1.1.4v.1l-2.6.5c-5.9-5.4-8.9-8.1-8.9-8.1l-.4-1.9v-.1c.4 0 .9-.1 1.5-.2 2.7-.5 4.1-1.8 4.4-3.9v-.9l-7.2 1.3s-.1 0-.1-.1c.6-1.5.8-2.2.9-2.2l5.7-1.1c-.5-.7-1.2-1.2-2.2-1.4-.7-.1-1.4-.1-1.9 0l-3.2.6v-.1c.4-1.3.7-2 .7-2z"/>
  <circle cx="13.5" cy="17" r=".8" fill="#0081A5"/>
  <circle cx="31.1" cy="13.8" r=".8" fill="#0081A5"/>
  <clipPath id="a">
    <use overflow="visible"/>
  </clipPath>
  <g clip-path="url(#a)">
    <image width="25" height="10" overflow="visible" opacity=".6" transform="translate(10.271 10.271)"/>
    <path fill="#FFF" d="M11.4 15.8l.6 3.1 21.5-4-.6-3.1-21.5 4zm2.2 2c-.4.1-.8-.2-.9-.6-.1-.4.2-.8.6-.9.4-.1.8.2.9.6.1.4-.2.8-.6.9zm17.6-3.2c-.4.1-.9-.2-1-.7-.1-.4.2-.9.7-1 .4-.1.9.2 1 .7 0 .5-.3.9-.7 1zm-19.8 1.2l.6 3.1 21.5-4-.6-3.1-21.5 4zm2.2 2c-.4.1-.8-.2-.9-.6-.1-.4.2-.8.6-.9.4-.1.8.2.9.6.1.4-.2.8-.6.9zm17.6-3.2c-.4.1-.9-.2-1-.7-.1-.4.2-.9.7-1 .4-.1.9.2 1 .7 0 .5-.3.9-.7 1z"/>
  </g>
  <use fill="none" stroke="#0075A8" stroke-width="0" stroke-miterlimit="10" overflow="visible"/>
  <path fill="none" stroke="#555" stroke-width=".4" stroke-miterlimit="10" d="M13.5 17.1S11 3.9 19.8 2.3C28.5.6 31 13.9 31 13.9"/>
  <path fill="#0DB1DA" d="M9.84 11.23l33.28 1.37-1.46 35.47L8.4 46.7z"/>
  <path fill="#FFF" d="M20.7 18.5L33 19c-.8 1.2-1.2 1.9-1.3 2l-3.3-.1c.4.6.7 1.4.8 2.2l3.5.1s.1 0 .1.1c-.8 1.3-1.3 2-1.3 2l-2.3-.1c-.1.7-.4 1.5-1 2.5-.8 1-1.5 1.6-2.1 1.8-1.2.6-2.4.9-3.5.8 0 .1.2.5.8 1.2l5.8 8.6v.4s0 .1-.1.1l-2.7-.1-6.9-9.9.1-1.9v-.1c.4.1.9.1 1.5.2 2.7.1 4.4-.8 5.2-2.8.1-.3.2-.6.2-.9l-7.3-.3s-.1 0-.1-.1c.9-1.3 1.3-2 1.3-2l5.8.2c-.3-.8-.9-1.4-1.9-1.9-.7-.3-1.3-.4-1.8-.5l-3.3-.1v-.1c1-1.1 1.4-1.8 1.5-1.8z"/>
  <circle cx="17.4" cy="15.1" r=".8" fill="#0081A5"/>
  <circle cx="35.3" cy="15.9" r=".8" fill="#0081A5"/>
  <clipPath id="b">
    <use overflow="visible"/>
  </clipPath>
  <g clip-path="url(#b)">
    <image width="25" height="7" overflow="visible" opacity=".6" transform="translate(14.271 12.271)"/>
    <path fill="#FFF" d="M15.7 13.5l-.1 3.2 21.8.9.1-3.2-21.8-.9zm1.7 2.4c-.4 0-.8-.4-.7-.8 0-.4.4-.8.8-.7.4 0 .8.4.7.8-.1.4-.4.7-.8.7zm17.8.8c-.5 0-.8-.4-.8-.8 0-.5.4-.8.8-.8.5 0 .8.4.8.8 0 .5-.3.8-.8.8zm-19.5-3.2l-.1 3.2 21.8.9.1-3.2-21.8-.9zm1.7 2.4c-.4 0-.8-.4-.7-.8 0-.4.4-.8.8-.7.4 0 .8.4.7.8-.1.4-.4.7-.8.7zm17.8.8c-.5 0-.8-.4-.8-.8 0-.5.4-.8.8-.8.5 0 .8.4.8.8 0 .5-.3.8-.8.8z"/>
  </g>
  <use fill="none" stroke="#0075A8" stroke-width="0" stroke-miterlimit="10" overflow="visible"/>
  <path fill="none" stroke="#555" stroke-width=".4" stroke-miterlimit="10" d="M17.4 15.2s.5-13.4 9.4-13.1c8.9.4 8.4 13.9 8.4 13.9"/>
  <path fill="#0DB1DA" d="M129.3 39.5c0-.5.1-1.4.2-2.9.2-2.5.3-4.6.3-6.1 0-2.1-.2-3.7-.6-5.1-.4-1.3-.9-2-1.4-2-1 0-2.2.9-3.5 2.6-1.3 1.7-1.9 3.3-1.9 4.7 0 2.7.2 4.9.5 6.7.3 1.8.5 2.8.5 3.1 0 1.2-.7 1.8-2.1 1.8-.8 0-1.3-.1-1.7-.2-.4-.1-.7-.4-.9-.9-.5-1.3-1.1-5.3-1.8-11.9-.1-1.2-.4-3.5-.8-6.9-.7-5.2-1.1-8.6-1.1-10.3 0-1.6.3-2.7.9-3.4.6-.7 1.6-1 2.9-1 .7 0 1.3.2 1.8.6.5.4.7.9.7 1.5 0 .3 0 .8-.1 1.5-.1 1.7-.2 3.3-.2 4.8 0 .8.1 2.4.3 4.6.2 2 .3 3.5.3 4.4.3-1.3 1.3-2.5 3-3.6 1.6-1.2 3.4-1.7 5.3-1.7 1.7 0 2.9.9 3.8 2.8.9 1.9 1.4 4.6 1.4 8.2 0 .5-.1 1.7-.2 3.7-.2 2.3-.3 3.7-.3 4.5 0 .9-.3 1.6-.8 2.1s-1.3.7-2.3.7c-.7-.1-1.3-.3-1.8-.7-.1-.4-.4-1-.4-1.6zm7.8-.3c0-2.8 1.8-5.6 5.3-8.4.4-.4 1.1-.8 1.8-1.5l2.4-1.8c.8-.6 1.4-.9 1.8-1-.2-1-.5-1.8-.9-2.4-.4-.6-1-.9-1.6-.9-.6 0-1.4.2-2.2.6-.8.4-1.5.8-1.9 1.3-.6.6-1.1.9-1.3.9-.5 0-1-.2-1.5-.6-.5-.4-.7-.9-.7-1.4 0-.8.5-1.4 1.6-2 1.1-.6 2.4-1.1 3.9-1.7 1.5-.5 2.6-.8 3.3-.8 1.6 0 2.9.6 3.9 1.8 1 1.2 1.9 3.1 2.5 5.5.6 2 .9 4.8.9 8.3 0 1.6-.2 3.1-.5 4.6-.2.9-.4 1.5-.6 1.6-.2.2-.5.3-.9.4-.4.1-.8.2-1.1.2-.7 0-1.3-.2-1.8-.5s-.7-.8-.7-1.4l.2-1.5c-.9 1-2.1 1.9-3.6 2.5-1.5.6-2.9.9-4.3.9-2.7.1-4-.8-4-2.7zm11.8-9.3c-4.3 2.8-6.5 5.2-6.5 7.3 0 .8.4 1.1 1.2 1.1 1.2 0 2.4-.6 3.6-1.8.3-.3.6-.5 1.1-.7.4-.2.7-.4.7-.4 0-2.4 0-4.2-.1-5.5zm9.7-4.7c-.2 0-.4 0-.8.1-.6.1-1.1.1-1.4.1-.4 0-.8-.2-1.1-.5-.3-.3-.5-.6-.5-1 0-.6.1-1 .4-1.4.3-.4.7-.6 1.2-.6.2 0 .6 0 1-.1s.7-.1.8-.1c0-1-.1-2.3-.4-4-.2-1.3-.3-2.2-.3-2.8 0-.7.2-1.2.7-1.7.5-.4 1.1-.6 1.8-.6.8 0 1.5.2 2 .6.5.4.8.9.8 1.4 0 .2 0 .9.1 2.1.2 2.1.3 3.6.3 4.5.2 0 .4-.1.7-.2.4-.2.8-.2 1.1-.2.5 0 1 .2 1.3.6.4.4.5.9.5 1.4 0 .3-.1.5-.2.8-.1.2-.3.4-.5.6-.2.2-1.1.4-2.6.7 0 .5 0 1.8.1 3.8.1 2 .2 3.3.2 4 .1.7.2 2.2.3 4.4.1 2.2.2 3.5.2 4s-.2 1-.7 1.4c-.5.5-1 .7-1.6.7-.9 0-1.6-.2-2.1-.5-.3-.2-.5-.4-.6-.6-.2-.2-.3-1.1-.4-2.7-.1-2.5-.2-4.5-.2-5.9 0-.7-.1-2.4-.2-5.1.1-1.9.1-2.9.1-3.2zm15.8 8.7c0 1 .2 2.4.5 3.9.2 1 .3 1.8.3 2.1 0 .6-.3 1.1-.8 1.6s-1.1.7-1.7.7c-.7 0-1.3-.2-1.9-.6-.6-.4-.8-.9-.8-1.4 0-.6-.2-2.8-.5-6.6-.4-3.7-.6-6-.7-6.7-.1-.8-.3-2-.6-3.7-.6-3.4-.9-5.7-.9-6.9 0-.6.3-1.1.8-1.5.6-.4 1.3-.6 2.1-.6.5 0 1 .2 1.4.5.4.3.5.8.6 1.3 0 .3.3 1.6.7 3.8.6 2.8.9 4.5.9 5.1.5-.4 1.4-1.2 2.7-2.4 1.3-1.2 2.3-2.1 2.8-2.6.6-.5.8-.9.8-1.1-.1-.3-.2-.6-.2-.9 0-.3.3-.6 1-.9.7-.3 1.4-.4 2.2-.4.5 0 .9.2 1.3.5s.6.7.6 1.2c0 1.1-.5 2-1.4 2.9-.8.7-2.3 2-4.6 3.9s-3.6 3-3.9 3.2c-.7.4-1 .8-1 1.1 0 .1.5.4 1.4.9.4.2.6.4.7.4 3.6 2.2 6.2 3.5 8 3.9.7.2 1.2.5 1.7 1.1.5.5.7 1.1.7 1.6s-.1 1-.4 1.4c-.3.4-.7.6-1.1.6-1.3 0-3.1-.6-5.3-1.8-2.4-1.4-4.2-2.5-5.4-3.6zm29.5-1.4c0 1.1-1.7 2.9-5.2 5.5-.1.1-.4.3-.7.6-2.9 2.4-4.8 3.5-5.5 3.5-1.4 0-2.6-.8-3.5-2.5-.9-1.7-1.4-3.5-1.4-5.6v-.8c-.2.1-.6.1-1 .1-.2 0-.4-.2-.6-.5-.2-.3-.3-.6-.3-.9 0-.6.1-1.1.3-1.4.2-.3.7-.6 1.5-.9 0-1.7.2-3.4.6-4.9.4-1.5.9-2.8 1.6-3.9.7-1 1.3-1.6 1.8-1.6 1.5 0 2.9.3 4.3.8s2.5 1.2 3.5 2.1c.9.9 1.4 1.7 1.4 2.4 0 .8-.1 1.5-.3 1.9-.2.4-.5.8-.8 1.1-.4.3-1.6 1.1-3.7 2.2-2 1.1-3.2 1.8-3.5 2V33c0 1.1.2 2.1.5 2.9.3.8.7 1.2 1.1 1.2.7 0 2-1 3.8-2.9 1.5-1.5 2.5-2.5 2.9-2.8.5-.4.9-.5 1.3-.5 1.3.1 1.9.6 1.9 1.6zm-10.2-9c-.3 0-.6.5-.9 1.6-.3 1.1-.5 2-.5 2.8.2-.1.7-.4 1.5-.7 1.3-.6 2.1-1 2.4-1.2 0-.5-.3-1.1-.8-1.6-.5-.6-1-.9-1.7-.9zm17.3 7.9c0 .9-.2 1.6-.6 2.1-.4.6-.9.8-1.6.8-.7 0-1.3-.2-1.9-.6-.6-.4-.9-.9-.9-1.4v-3.2c0-3.3.1-5.5.1-6.5 0-.9-.1-3.3-.3-7.2-.1-2.6-.2-4.2-.2-4.6 0-.8.3-1.5.8-2.1.5-.6 1.1-.9 1.8-.9 1.8 0 2.7 1.1 2.7 3.2v6.3c0 2.2.1 5.5.2 9.8-.2 2.3-.1 3.7-.1 4.3zm-5.3 9c0-.7.3-1.3.9-1.8.6-.5 1.3-.8 2-.8s1.3.4 1.9 1.2c.6.8.9 1.5.9 2.2 0 .5-.3 1-.8 1.3-.5.4-1.2.6-1.9.6-2-.1-3-1-3-2.7z"/>
  <path fill="#3F6B77" d="M55 13.2v9.7c.9-.9 1.8-1.5 2.9-2 1-.4 2.1-.7 3.3-.7 2.5 0 4.7 1 6.5 2.9 1.8 1.9 2.7 4.4 2.7 7.4 0 2.9-.9 5.3-2.7 7.3-1.8 1.9-4 2.9-6.5 2.9-1.1 0-2.2-.2-3.1-.6-1-.4-1.9-1.1-2.9-2v2.1h-4.8v-27H55zm5.1 11.5c-1.5 0-2.8.5-3.8 1.6-1 1-1.5 2.4-1.5 4.1 0 1.7.5 3.1 1.5 4.2s2.3 1.6 3.8 1.6 2.7-.5 3.8-1.6c1-1.1 1.5-2.5 1.5-4.1 0-1.7-.5-3-1.5-4.1-1-1.2-2.2-1.7-3.8-1.7zm12.9-4h4.9v9.4c0 1.8.1 3.1.4 3.8.3.7.7 1.3 1.2 1.7.6.4 1.2.6 2 .6s1.5-.2 2.1-.6c.6-.4 1-1 1.3-1.7.2-.6.3-1.8.3-3.6v-9.5h4.9V29c0 3.4-.3 5.7-.8 7-.7 1.5-1.6 2.7-2.9 3.5-1.3.8-2.9 1.2-4.9 1.2-2.1 0-3.9-.5-5.2-1.4-1.3-1-2.2-2.3-2.8-4-.4-1.2-.6-3.3-.6-6.4v-8.2zm18.5 0h5l5 12.2 5.6-12.2h5L99.9 47.3h-5l4-8.6-7.4-18z"/>
</svg>
