<svg xmlns="http://www.w3.org/2000/svg" xmlns:xlink="http://www.w3.org/1999/xlink" viewBox="0 0 36.3 40.3"><path fill="#1F7A93" d="M2.42 11.28l26.35-4.9 5.2 28.03-26.34 4.9z"/><path fill="#FFF" d="M12.1 15.1l9.8-1.8c-.4 1.1-.6 1.7-.7 1.8l-2.6.5c.4.4.8.9 1.1 1.6l2.8-.5h.1c-.4 1.2-.6 1.8-.7 1.8l-1.8.3c.1.5 0 1.2-.3 2.1-.4.9-.9 1.5-1.3 1.8-.8.7-1.7 1.1-2.6 1.3 0 .1.3.3.8.8l6.1 5.7.1.3v.1l-2.1.4c-4.8-4.3-7.1-6.5-7.2-6.5l-.3-1.5v-.1c.3 0 .7-.1 1.2-.1 2.1-.4 3.3-1.4 3.6-3.1v-.7l-5.8 1.1s-.1 0-.1-.1c.4-1.2.7-1.8.7-1.8l4.6-.9c-.4-.6-1-.9-1.8-1.1-.6-.1-1.1-.1-1.5 0l-2.6.5v-.1c.3-1.2.5-1.8.5-1.8z"/><g fill="#0081A5"><circle cx="9" cy="13" r=".6"/><circle cx="23.1" cy="10.4" r=".7"/></g><defs><path id="a" d="M9.6 12.9c.1.3-.2.7-.5.7-.3.1-.7-.2-.7-.5-.1-.3.2-.7.5-.7.3-.1.6.1.7.5zM23 9.8c-.4.1-.6.4-.5.8.1.4.4.6.8.5.4-.1.6-.4.5-.8-.1-.4-.4-.6-.8-.5z"/></defs><clipPath id="b"><use xlink:href="#a" overflow="visible"/></clipPath><g clip-path="url(#b)"><path fill="#FFF" d="M7.3 12l.5 2.5L25 11.3l-.5-2.5L7.3 12zm1.8 1.6c-.3.1-.7-.2-.7-.5-.1-.3.2-.7.5-.7.3-.1.7.2.7.5.1.3-.2.6-.5.7zM23.2 11c-.4.1-.7-.2-.8-.5-.1-.4.2-.7.5-.8.4-.1.7.2.8.5.1.4-.1.8-.5.8z"/><path fill="none" stroke="#0075A8" stroke-width=".03" stroke-miterlimit="10" d="M7.3 12l.5 2.5L25 11.3l-.5-2.5L7.3 12zm1.8 1.6c-.3.1-.7-.2-.7-.5-.1-.3.2-.7.5-.7.3-.1.7.2.7.5.1.3-.2.6-.5.7zM23.2 11c-.4.1-.7-.2-.8-.5-.1-.4.2-.7.5-.8.4-.1.7.2.8.5.1.4-.1.8-.5.8z"/></g><use fill="none" stroke="#0075A8" stroke-width=".03" stroke-miterlimit="10" xlink:href="#a" overflow="visible"/><path fill="none" stroke="#555" stroke-width=".35" stroke-miterlimit="10" d="M9 13S7 2.4 14.1 1.1c7-1.3 9 9.3 9 9.3"/><path fill="#0DB1DA" stroke="#1F8691" stroke-width=".01" stroke-miterlimit="10" d="M6.1 8.36l26.77 1.1-1.17 28.48-26.77-1.1z"/><path fill="#FFF" d="M14.8 14.2l9.9.4c-.6 1-1 1.5-1.1 1.6l-2.6-.1c.3.5.6 1.1.7 1.8l2.8.1v.1c-.7 1-1 1.6-1 1.6l-1.8-.1c-.1.5-.3 1.2-.8 2-.6.8-1.2 1.3-1.7 1.5-1 .5-1.9.7-2.8.7 0 .1.2.4.6 1l4.6 6.9v.3h-.1l-2.2-.1c-3.7-5.3-5.5-8-5.5-8l.1-1.6v-.1c.3.1.7.1 1.2.1 2.2.1 3.6-.7 4.2-2.2.1-.2.1-.5.2-.7l-5.9-.2v-.1c.7-1 1.1-1.6 1.1-1.6l4.7.2c-.3-.6-.8-1.1-1.5-1.5-.5-.2-1-.3-1.5-.4l-2.6-.1v-.1c.6-.9.9-1.4 1-1.4z"/><g fill="#0081A5"><circle cx="12.1" cy="11.4" r=".6"/><circle cx="26.5" cy="12.1" r=".7"/></g><defs><path id="c" d="M12.8 11.5c0 .3-.3.6-.6.6s-.6-.3-.6-.6.3-.6.6-.6c.3-.1.6.2.6.6zm13.7-.1c-.4 0-.7.3-.7.6 0 .4.3.7.6.7.4 0 .7-.3.7-.6.1-.4-.2-.7-.6-.7z"/></defs><clipPath id="d"><use xlink:href="#c" overflow="visible"/></clipPath><g clip-path="url(#d)"><path fill="#FFF" d="M10.7 10.1l-.1 2.5 17.5.7.1-2.5-17.5-.7zm1.4 2c-.3 0-.6-.3-.6-.6s.3-.6.6-.6.6.3.6.6-.2.6-.6.6zm14.4.6c-.4 0-.6-.3-.6-.7 0-.4.3-.6.7-.6.4 0 .6.3.6.7-.1.4-.4.6-.7.6z"/><path fill="none" stroke="#0075A8" stroke-width=".03" stroke-miterlimit="10" d="M10.7 10.1l-.1 2.5 17.5.7.1-2.5-17.5-.7zm1.4 2c-.3 0-.6-.3-.6-.6s.3-.6.6-.6.6.3.6.6-.2.6-.6.6zm14.4.6c-.4 0-.6-.3-.6-.7 0-.4.3-.6.7-.6.4 0 .6.3.6.7-.1.4-.4.6-.7.6z"/></g><use fill="none" stroke="#0075A8" stroke-width=".03" stroke-miterlimit="10" xlink:href="#c" overflow="visible"/><path fill="none" stroke="#555" stroke-width=".35" stroke-miterlimit="10" d="M12.1 11.5S12.5.7 19.7 1c7.1.3 6.7 11.1 6.7 11.1"/></svg>
