<svg xmlns="http://www.w3.org/2000/svg" fill-rule="evenodd" stroke-miterlimit="1.41" viewBox="0 0 50 50" clip-rule="evenodd" stroke-linejoin="round"><path fill="none" d="M0 0h50v50H0z"/><path fill="#ccc" fill-rule="nonzero" d="M15.4 15.06h16.04v19.26H15.4z"/><path fill="#80899c" fill-rule="nonzero" stroke="#414141" stroke-width="1.33" d="M15.42 15.06h16.02l-1.35 1.07 2.7 1.6H14l2.77-1.6-1.33-1.07z"/><path fill="#4d4d4d" fill-rule="nonzero" d="M19.26 17.37c0 .13-.12.24-.27.24-.2 0-.3-.1-.3-.2s.1-.2.3-.2c.1 0 .2.1.2.27m8.9 0c0 .1-.18.23-.3.23s-.3-.1-.3-.23.12-.22.27-.22c.15 0 .3.1.3.24"/><path fill="#333" fill-rule="nonzero" d="M18.22 19.82c0 .2-.15.34-.34.34-.2 0-.34-.15-.34-.34 0-.18.15-.34.34-.34.2 0 .34.15.34.34m11.08 0c0 .2-.15.34-.34.34-.2 0-.34-.15-.34-.34 0-.18.15-.34.34-.34.2 0 .34.15.34.34"/><path fill="none" stroke="#666" stroke-miterlimit="10" d="M27.9 17.48c0-6.2-8.94-6.2-8.94 0" stroke-linecap="round" stroke-linejoin="miter"/><path fill="#f9f9f9" fill-rule="nonzero" stroke="#414141" stroke-width="2" d="M13.97 17.73h18.9v17.82h-18.9z"/><path fill="none" stroke="#4d4d4d" stroke-miterlimit="10" d="M28.95 19.73c0-9.2-11.05-9.2-11.05 0" stroke-linecap="round" stroke-linejoin="miter"/><path fill="#414141" fill-rule="nonzero" d="M26.6 24.6l-.3.65h-1.1c-.1.8-.6 1.48-1.28 1.9-.2.13-1.86.66-1.86.56 1.2 1.2 2.23 2.5 3.3 3.7v.2H23.2c-1.06-1.3-2.06-2.6-3.28-3.72.15-.44.25-.9.4-1.34 1.1.3 2.68.1 3-1.2h-3.27V24h3.24c-.5-1.2-2.2-.9-3.3-.9v-1.3h6.9l-.6 1.3h-2v.05c.3.2.55.5.7.85h1.83l-.3.66"/></svg>