<svg xmlns="http://www.w3.org/2000/svg" xmlns:xlink="http://www.w3.org/1999/xlink" viewBox="0 0 33 36.6"><path fill="#28A8C6" d="M29.2 12.6L27 15.3c.5 1.2.6 3.1.6 4.5 0 6.1-4.9 11.1-11.1 11.1S5.2 26.3 5.2 20.2c0-1.4-.1-2.2.6-4.9l-2.4-2.7c-1.1 2-1.5 4.7-1.5 7.1 0 8.1 6.5 14.6 14.6 14.6s14.6-6.5 14.6-14.6c0-2.3-.8-5.1-1.9-7.1z"/><path fill="#208590" d="M16.5 34.4c-3.9 0-7.6-1.5-10.3-4.3-2.8-2.8-4.3-6.4-4.3-10.3 0-2.7.6-5.3 1.5-7.2l2.4 2.7c-.7 2.4-.7 3.2-.6 4.4v.5c0 6 5 10.6 11.3 10.6 6.1 0 11-5 11-11 0-2-.2-3.5-.6-4.5l2.3-2.7c1.1 2.2 1.9 5 1.9 7.1 0 3.9-1.5 7.6-4.3 10.3-2.7 2.9-6.4 4.4-10.3 4.4zM3.4 12.7c-1 1.8-1.5 4.4-1.5 7.1 0 8 6.5 14.6 14.6 14.6s14.6-6.5 14.6-14.6c0-2.2-.7-4.9-1.8-7.1L27 15.3c.4 1 .6 2.4.6 4.5 0 3-1.2 5.7-3.2 7.8s-4.9 3.2-7.8 3.2c-3 0-5.8-1.1-8-3-2.2-2-3.4-4.7-3.4-7.6v-.5c0-1.2 0-2 .6-4.4l-2.4-2.6z"/><path fill="#406B77" d="M16.6 8.5c4.4 0 7.9 2.4 10 5.8l2.2-2.7c-2.6-4-6.6-9.3-12.3-9.3-6.3 0-9.8 5.5-12.4 9.6l2.3 2.5c2-3.7 5.7-5.9 10.2-5.9zm-7.1 6.9l10.93-2.02 2.15 11.6L11.68 27z"/><path fill="#FFF" d="M13.7 17l4-.7c-.2.5-.3.7-.3.7l-1.1.2c.2.2.3.4.4.7l1.1-.2c-.2.5-.3.7-.3.7l-.7.1c0 .2 0 .5-.1.9-.2.4-.4.6-.5.7-.4.3-.7.5-1.1.5l.3.3 2.5 2.4v.1l-.9.2c-2-1.8-2.9-2.7-3-2.7l-.1-.6c.1 0 .3 0 .5-.1.9-.2 1.4-.6 1.5-1.3v-.3l-2.4.4c.2-.5.3-.7.3-.7l1.9-.4c-.2-.2-.4-.4-.7-.5h-.6l-1.1.2c.3-.4.4-.6.4-.6z"/><circle cx="12.2" cy="16.1" r=".3" fill="#0181A5"/><circle cx="18.1" cy="15.1" r=".3" fill="#0181A5"/><defs><path id="a" d="M12.2 16.4c-.1 0-.2-.1-.3-.2V16s.1-.1.2-.1.2.1.3.2c.1.1 0 .3-.2.3.1 0 .1 0 0 0zm0-.5c-.1 0-.2.1-.2.1 0 .1-.1.1 0 .2 0 .1.1.2.2.2s.2-.2.2-.3c.1-.1 0-.2-.2-.2zm5.9-.6c-.1 0-.2-.1-.3-.2 0-.1.1-.3.2-.3h.1c.1 0 .2.1.3.2v.2c-.1.1-.2.1-.3.1zm0-.5s-.1 0 0 0c-.2 0-.3.2-.3.3 0 .1.1.2.3.2.1 0 .1-.1.2-.1 0-.1.1-.1 0-.2 0-.1-.1-.2-.2-.2z"/></defs><use fill="#0976A8" xlink:href="#a" overflow="visible"/><clipPath id="b"><use xlink:href="#a" overflow="visible"/></clipPath><g clip-path="url(#b)"><path fill="#FFF" d="M11.6 15.7l.2 1 7.1-1.3-.2-1-7.1 1.3zm.7.7c-.1 0-.3-.1-.3-.2s.1-.3.2-.3.3.1.3.2-.1.3-.2.3zm5.8-1.1c-.1 0-.3-.1-.3-.2s.1-.3.2-.3.3.1.3.2c.1.2 0 .3-.2.3z"/><path fill="#0976A8" d="M11.7 16.8l-.2-1 7.1-1.3.2 1-7.1 1.3zm-.1-1.1l.2 1 7.1-1.3-.2-1-7.1 1.3zm.6.7c-.1 0-.2-.1-.3-.2V16s.1-.1.2-.1.2.1.3.2c.1.1 0 .3-.2.3.1 0 .1 0 0 0zm0-.5c-.1 0-.2.1-.2.1 0 .1-.1.1 0 .2 0 .1.1.2.2.2s.2-.2.2-.3c.1-.1 0-.2-.2-.2zm5.9-.6c-.1 0-.2-.1-.3-.2 0-.1.1-.3.2-.3h.1c.1 0 .2.1.3.2v.2c-.1.1-.2.1-.3.1zm0-.5s-.1 0 0 0c-.2 0-.3.2-.3.3 0 .1.1.2.3.2.1 0 .1-.1.2-.1 0-.1.1-.1 0-.2 0-.1-.1-.2-.2-.2z"/></g><path fill="#333" d="M12.1 16.2s-.8-4.5 2.2-5.1c1.2-.2 2.3.4 3.1 1.8.6 1 .8 2.1.8 2.2H18s-.8-4.3-3.6-3.8-2 4.7-2 4.8l-.3.1z"/><path fill="#28A8C6" d="M11.05 14.18l11.1.45-.5 11.8-11.1-.46z"/><path fill="#208590" d="M21.6 26.4l-11-.4.4-11.8 11.1.5-.5 11.7zm-11-.4l11 .5.5-11.7-11-.5-.5 11.7z"/><path fill="#FFF" d="M14.8 16.6l4.1.2c-.3.4-.4.6-.4.7h-1.1c.1.2.2.5.3.7h1.2c-.3.4-.4.6-.4.7h-.8c0 .2-.1.5-.3.8-.3.3-.5.5-.7.6-.4.2-.8.3-1.2.3 0 0 .1.2.3.4l1.9 2.9v.1h-.9c-1.5-2.2-2.3-3.3-2.3-3.3v-.6c.1 0 .3 0 .5.1.9 0 1.5-.3 1.7-.9 0-.1.1-.2.1-.3l-2.4-.1c.3-.4.4-.6.4-.6l1.9.1c-.1-.3-.3-.5-.6-.6-.2-.1-.4-.1-.6-.2h-1.1c.2-.8.3-1 .4-1z"/><circle cx="13.5" cy="15.5" r=".3" fill="#0181A5"/><circle cx="19.5" cy="15.8" r=".3" fill="#0181A5"/><defs><path id="c" d="M19.5 16c-.1 0-.2 0-.2-.1s-.1-.1-.1-.2.1-.3.3-.3c.1 0 .1 0 .2.1 0 .1.1.1.1.2-.1.2-.2.3-.3.3zm0-.5c-.1 0-.3.1-.3.3 0 .1 0 .1.1.2 0 .1.1.1.2.1s.3-.1.3-.3c0-.1 0-.1-.1-.2s-.1-.1-.2-.1zm-6 .3c-.2 0-.3-.1-.3-.3 0-.1.1-.2.3-.2.1 0 .3.1.2.3.1.1 0 .2-.2.2zm0-.5c-.1 0-.2.1-.2.2s0 .1.1.2c0 0 .1.1.2.1s.2-.1.2-.2c0-.2-.1-.3-.3-.3.1 0 .1 0 0 0z"/></defs><use fill="#0976A8" xlink:href="#c" overflow="visible"/><clipPath id="d"><use xlink:href="#c" overflow="visible"/></clipPath><g clip-path="url(#d)"><path fill="#FFF" d="M13 15v1l7.2.3v-1L13 15zm.5.8c-.1 0-.2-.1-.2-.3 0-.1.1-.2.3-.2.1 0 .2.1.2.3 0 .1-.1.2-.3.2zm6 .2c-.1 0-.3-.1-.3-.3 0-.1.1-.3.3-.3.1 0 .3.1.3.3-.1.2-.2.3-.3.3z"/><path fill="#0976A8" d="M20.2 16.3l-7.3-.3v-1.1l7.2.3.1 1.1zm-7.3-.3l7.2.3v-1L13 15l-.1 1zm6.6 0c-.1 0-.2 0-.2-.1s-.1-.1-.1-.2.1-.3.3-.3c.1 0 .1 0 .2.1 0 .1.1.1.1.2-.1.2-.2.3-.3.3zm0-.5c-.1 0-.3.1-.3.3 0 .1 0 .1.1.2 0 .1.1.1.2.1s.3-.1.3-.3c0-.1 0-.1-.1-.2s-.1-.1-.2-.1zm-6 .3c-.1 0-.1 0-.2-.1 0-.1-.1-.1-.1-.2s.1-.2.3-.2c.1 0 .3.1.2.3.1.1 0 .2-.2.2zm0-.5c-.1 0-.2.1-.2.2s0 .1.1.2c0 0 .1.1.2.1s.2-.1.2-.2c0-.2-.1-.3-.3-.3.1 0 .1 0 0 0z"/></g><path fill="#333" d="M19.6 15.8h-.2s.1-4.4-2.7-4.5c-2.8-.1-3 4.2-3 4.2h-.2s.2-4.6 3.2-4.4c1.3.1 2.2.9 2.6 2.4.3 1.1.3 2.2.3 2.3z"/><g fill="#FFF"><path d="M10 7.3s-.1 0-.1.1c0 .4.1.5.1.9-.1 0-.2 0-.4.1 0-.4 0-.5-.1-.9-.1.1-.3.2-.4.2 0 .4.1.8.2 1l.1.1c-.2.1-.4.2-.5-.1-.1-.1-.1-.5-.1-.8-.1 0-.1 0-.1.1-.4.1-.6 0-.6-.1-.1-.2.2-.4.3-.4.1-.1.3-.1.4-.1.1-.5.3-1 .7-1.1h.2c0 .4.1.6.1 1 .1-.1.2-.1.2 0 0-.1 0-.1 0 0zm-1.4.2c-.3.1-.4.2-.3.3 0 .1.2.1.4 0h.1v-.3h-.2zm.5.1c.1-.1.3-.1.4-.2h-.4v.2zm.4-.2c0-.4 0-.5-.1-.9-.2.2-.3.5-.3.9h.4zm1-.8c0 .1 0 .1 0 0 .1 0 .1 0 .2-.1.3-.1.5 0 .5.2v.2c.1.6-.1.8-.4.9h-.3c0 .3 0 .4.1.7-.1.1-.2.1-.3.2-.1-.8-.2-1.2-.3-2.1.3.1.3.1.5 0zm.4.5v-.3c0-.2-.1-.2-.2-.1-.1 0-.1.1-.1.1 0 .4 0 .6.1.9h.2v-.6zm1.4-.8s-.2-.1 0 0c.3-.1.3 0 .4.2v.2c0 .6-.2.8-.5.9h-.3v.7c-.1.1-.2.1-.4.2-.1-.8.1-1.2.1-2.1.2-.1-.3-.1.7-.1zm-.1.5v-.3c0-.2-.1-.2-.2-.2s-.1 0-.1.1v.9h.2c0 .1.1 0 .1-.5z"/><path d="M13.2 5.4c0 .6-.1.9-.1 1.5V7c0 .1 0 .1.2.1.1 0 .2-.2.3-.3h.1c-.1.1-.4.5-.6.6-.2 0-.3 0-.4-.2v-.1c0-.6 0-.9.1-1.4.1-.2.2-.2.4-.3z"/><path d="M13.9 5.9c0 .4-.1.6-.1.9v.1c0 .1.1.1.2.1s.1-.1.2-.1c0-.4.1-.6.1-1h.4c-.1.6-.1 1-.2 1.6 0 .4-.3.5-.4.5-.2 0-.3-.1-.3-.2 0-.3.2-.4.4-.5v-.2l-.3.3c-.2 0-.3 0-.4-.2v-.1c0-.4 0-.6.1-.9.1-.3.2-.3.3-.3zm.1 1.8c.1 0 .1-.1.1-.2v-.2c-.2.1-.3.2-.3.3.1.1.1.1.2.1zm2.9-1c-.2.4-.5.5-.8.5-.3 0-.6-.1-.6-.7s.2-1.4 1-1.4c.3 0 .5.1.5.4 0 .1-.1.2-.2.2 0 0-.1 0-.2-.1.1 0 .1-.2.1-.2s0-.2-.2-.2c-.4 0-.6.7-.6 1.2 0 .4.1.5.4.5.2 0 .4-.1.6-.2-.1-.1-.1 0 0 0z"/><path d="M17.9 6.2c.2 0 .3 0 .4-.1v.1c-.1.1-.3.2-.4.2-.1.5-.4.8-.7.8-.3 0-.4-.1-.4-.5 0-.7.4-.9.8-.9.2 0 .3.2.3.4zm-.3.2c-.1 0-.1-.1-.1-.1 0-.1.1-.2.1-.2 0-.1 0-.1-.1-.2-.3 0-.4.5-.4.7 0 .2.1.2.2.2.2.1.3-.1.3-.4z"/><path d="M19.4 6c-.1.3-.2.5-.4.9V7c0 .1 0 .1.1.1s.3-.1.4-.2h.1c-.2.1-.5.4-.7.4-.2 0-.3-.1-.3-.3-.1.1-.3.2-.4.2-.2 0-.3-.1-.3-.3v-.1c.1-.4.2-.5.3-.9.2 0 .3 0 .4.1-.1.4-.2.5-.3.9V7c0 .1 0 .1.1.1s.1 0 .2-.1v-.1c.2-.4.3-.6.4-.9h.4z"/><path d="M20.1 6.2h.2c.3.1.4.2.3.5 0 .1 0 .1-.1.2-.2.5-.5.7-.8.6-.1 0-.2-.1-.2-.1l-.3.6h-.4c.3-.8.5-1.2.8-1.9.3 0 .4 0 .5.1zm.1.6c.1-.1.1-.2.1-.3 0-.2 0-.2-.1-.2H20c-.2.3-.2.5-.4.9.1.1.1.1.2.1.2 0 .3-.1.4-.5zm1.6.2c.2.1.3 0 .4 0v.1c-.1.1-.3.1-.5.1-.2.5-.6.7-.8.6-.3-.1-.4-.2-.3-.5.2-.6.6-.8 1-.7.2 0 .3.2.2.4zm-.3.2c-.1 0-.1-.1-.1-.2s.1-.1.2-.1c0-.1 0-.1-.1-.2-.2-.1-.5.4-.5.6 0 .2 0 .2.1.2.1.1.3-.1.4-.3z"/><path d="M22.8 8c-.1.1-.1.2 0 .2s.2 0 .3-.1h.1c-.2.1-.5.3-.7.2-.2-.1-.3-.2-.2-.4 0 0 0-.1.1-.1.1-.2.2-.3.3-.4v-.1c0-.1 0-.2-.1-.2h-.2c-.2.4-.4.6-.6 1-.1-.1-.1-.1-.3-.1l.7-1.2c.2.1.2.1.4.1V7h.4c.1.1.3.3.2.4v.1c-.2.2-.3.3-.4.5z"/><path d="M24.2 7.5c-.2.5 0 .7-.2 1-.1.2-.4.3-.7.2-.3-.2-.4-.3-.3-.6.1-.2.2-.3.3-.2.2-.1.3-.3.4-.5.3.1.4.1.5.1zm-.9.7c-.1 0-.1 0 0 0-.1.1-.1.2 0 .2s.3 0 .3-.2c.1-.2 0-.3.1-.6l-.3.3c.1 0 .1.1 0 .2 0 .1-.1.2-.1.1z"/></g><g fill="#FFF"><path d="M10.2 30.5c-.2.3-.7.8-1.2.4-.2-.1-.2-.2-.2-.4-.2 0-.4 0-.5-.1-.2-.1-.2-.3-.1-.4l.1-.1c.3-.2.4-.3.7-.5.1.1.2.1.3.2l-.6.6h-.1s0 .1.1.2c0 0 .1.1.2.1l.1-.1c.3-.2.4-.3.6-.5.1.1.2.1.3.2-.2.2-.4.3-.6.5l-.1.1s0 .1.1.1c.2.2.7-.2.8-.4H10c-.1 0-.1-.1 0-.2 0 0 .1-.1.2 0s.1.2 0 .3zm.6.2c-.2.2-.3.4-.5.6v.1s0 .1.1.1c.1.1.3 0 .4 0h.1c-.2 0-.6.2-.8.1-.2-.1-.3-.2-.2-.4 0 0 0-.1.1-.1l.6-.6c0 .1.1.1.2.2zm.2-.5c.1.1.1.2.1.3s-.2.1-.3.1c-.1-.1-.1-.2-.1-.3 0-.1.2-.2.3-.1z"/><path d="M11.7 30.7s-.1.1-.2.3c.1 0 .1 0 .1.1l-.1.1c-.1 0-.1 0-.1-.1l-.4.6s0 .1.1.1h.5c-.2.1-.6.2-.8.1-.2-.1-.3-.2-.2-.4.1-.1.4-.5.5-.6H11l.1-.1h.1c.1-.1.1-.2.2-.3.1.1.2.2.3.2z"/><path d="M12.2 32.5c-.2-.1-.2-.2-.2-.3 0 0 0-.1.1-.1.1-.1.1-.2.2-.4 0-.1 0-.1-.1-.2H12c-.2.3-.3.5-.6.8l-.4-.2c.4-.5.6-.8 1-1.3.1 0 .2.1.4.1-.1.2-.2.3-.3.5h.4c.1 0 .2.2.2.4l-.2.4s0 .1-.1.1c0 0 0 .1.1.1h.1c-.2.2-.3.1-.4.1zm1.7-.7c-.2.4-.3.6-.5.9.2 0 .4-.1.5-.3v.2c-.1.1-.3.2-.5.2 0 .1-.1.1-.1.2-.2.3-.4.3-.6.3-.2 0-.3-.2-.3-.3.1-.2.3-.2.6-.2l.5-1c.2-.1.3-.1.4 0zM12.7 33c.1 0 .1 0 .2-.1 0 0 0-.1.1-.1-.2 0-.3 0-.4.1 0 .1 0 .1.1.1zm1.2-1.8c.1 0 .2.1.2.2s-.1.2-.2.1c-.1 0-.2-.1-.2-.2 0 0 .1-.1.2-.1zm1.4.7c-.1.3-.2.5-.3.8v.1c0 .1 0 .1.1.1s.3-.1.4-.2h.1c-.1.1-.5.4-.7.4-.2 0-.3-.1-.3-.2-.1.1-.3.2-.4.1-.2 0-.3-.1-.3-.3v-.1c.1-.3.2-.4.3-.7.1 0 .2 0 .4.1-.1.3-.2.5-.3.8v.1c0 .1 0 .1.1.1s.1 0 .2-.1v-.1c.1-.3.2-.5.3-.8.1-.1.2-.1.4-.1z"/><path d="M16.1 31.9c0 .4.2.5.2.8l.2-.2.1.1c-.1.1-.2.1-.3.2-.1.1-.2.2-.5.2s-.5-.1-.5-.3c0-.2.1-.3.2-.3.1-.1.2-.4.2-.5.2.1.1.1.4 0zm-.6.9s-.1 0 0 0c-.1.1 0 .2.1.2s.2-.1.2-.3c0-.1-.1-.3-.1-.6 0 .1-.1.3-.2.4.1 0 .1.1.1.1.1.2 0 .2-.1.2z"/><path d="M16.8 32.7c0 .1 0 .1 0 0 0 .1 0 .2.1.2h.1c-.1.2-.2.2-.3.2-.2 0-.3-.1-.3-.2v-.1c.1-.3.1-.4.2-.7h-.1V32h.1c0-.1 0-.2.1-.3.1 0 .2 0 .4-.1 0 0 0 .2-.1.4h.2v.1L17 32c-.1.3-.1.5-.2.7zm2.1-.2c0 .1 0 .2.1.1h.1c0 .2-.1.3-.2.3-.2 0-.3 0-.3-.1l-.3.3c-.3 0-.4-.1-.4-.2-.1-.4 0-.9.6-1h.2v-.1c.1 0 .2 0 .4-.1-.2.3-.2.4-.2.8zm-.4-.6h-.1c-.2 0-.3.4-.2.7 0 .1.1.1.2.1s.1-.1.2-.1v-.1c-.1-.2-.1-.3-.1-.6zm1.8-.5c0-.1-.1-.1-.1 0-.2.1-.2.5-.1.7 0 .1.1.2.3.2.2-.1.3-.2.4-.4h.1c-.1.2-.1.5-.6.7-.2.1-.4 0-.5-.2-.1-.3-.1-.8.4-1 .1 0 .3-.1.3 0v.1c-.1-.1-.1-.1-.2-.1zm.5-.9c.1.5.2.8.2 1.3v.1s.1.1.2 0c.1 0 .2-.2.3-.3h.1c-.1.2-.2.6-.4.7-.2.1-.4.1-.4-.1v-.1c-.1-.5-.1-.7-.2-1.2 0-.3.1-.3.2-.4zm.7.1c.1.3.1.5.2.8v.1s.1.1.2 0 .2-.2.2-.4h.1c-.1.2-.2.6-.4.7-.2.1-.4.1-.4-.1v-.1c-.1-.3-.1-.5-.2-.8.1-.1.2-.1.3-.2zm-.3-.3c.1-.1.2 0 .3.1 0 .1 0 .2-.1.3-.1.1-.2 0-.3-.1 0-.2 0-.3.1-.3zm1.2 0h-.1c-.2.1-.1.5 0 .7.1.1.2.2.3.1.2-.1.3-.3.3-.5l.1-.1c0 .2 0 .5-.5.8-.2.1-.4.1-.5-.1-.2-.3-.2-.8.2-1 .1-.1.3-.1.3 0v.1h-.1c.1 0 0 .1 0 0 0 .1 0 0 0 0zm1.1-1c-.1.2-.1.4-.2.6.1-.1.3-.1.4 0 0 .1 0 .1.1.1v.1h.1l.1-.1c.1.2 0 .3-.1.4-.2.1-.3.1-.4 0 0 0 0-.1-.1-.1v-.1c0-.1-.1-.1-.2 0-.1 0-.1.1-.1.1.1.2.1.4.2.6-.1.1-.2.1-.3.2l-.5-1.5.3-.3c.1.3.2.5.3.8.1-.2.2-.6.2-.6 0-.1.1-.1.2-.2z"/></g></svg>